<svg width="28" height="21" viewBox="0 0 28 21" fill="none" xmlns="http://www.w3.org/2000/svg">
<path d="M26.0782 0H2.21031C1.7416 0.000560118 1.29226 0.17067 0.960832 0.473027C0.629403 0.775384 0.442936 1.18531 0.442322 1.6129V15.3226C0.442936 15.7502 0.629403 16.1601 0.960832 16.4625C1.29226 16.7648 1.7416 16.9349 2.21031 16.9355H11.321L10.7315 18.5484H9.28227C9.16505 18.5484 9.05262 18.5909 8.96973 18.6665C8.88684 18.7421 8.84027 18.8447 8.84027 18.9516V19.7581H4.8623C4.74507 19.7581 4.63265 19.8005 4.54976 19.8762C4.46687 19.9518 4.4203 20.0543 4.4203 20.1613C4.4203 20.2682 4.46687 20.3708 4.54976 20.4464C4.63265 20.522 4.74507 20.5645 4.8623 20.5645H24.3102C24.4274 20.5645 24.5398 20.522 24.6227 20.4464C24.7056 20.3708 24.7522 20.2682 24.7522 20.1613C24.7522 20.0543 24.7056 19.9518 24.6227 19.8762C24.5398 19.8005 24.4274 19.7581 24.3102 19.7581H19.4482V18.9516C19.4482 18.8447 19.4016 18.7421 19.3188 18.6665C19.2359 18.5909 19.1234 18.5484 19.0062 18.5484H17.557L16.9675 16.9355H26.0782C26.5469 16.9349 26.9962 16.7648 27.3277 16.4625C27.6591 16.1601 27.8456 15.7502 27.8462 15.3226V1.6129C27.8456 1.18531 27.6591 0.775384 27.3277 0.473027C26.9962 0.17067 26.5469 0.000560118 26.0782 0ZM18.5642 19.3548V19.7581H9.72427V19.3548H18.5642ZM11.6635 18.5484L12.253 16.9355H16.0354L16.625 18.5484H11.6635ZM26.9622 15.3226C26.9619 15.5364 26.8686 15.7413 26.7029 15.8925C26.5372 16.0437 26.3125 16.1288 26.0782 16.129H2.21031C1.97596 16.1288 1.75129 16.0437 1.58557 15.8925C1.41986 15.7413 1.32662 15.5364 1.32632 15.3226V14.5161H26.9622V15.3226ZM7.9375 10.0806L7.77175 13.7097H7.25682L7.09107 10.0806H7.9375ZM7.15184 9.27419L7.44688 7.66129H7.58169L7.87672 9.27419H7.15184ZM7.51428 6.85484C7.03527 6.85484 6.63029 6.30091 6.63029 5.64516C6.63029 5.23135 7.09328 4.63004 7.51318 4.20615C7.89164 4.58921 8.39828 5.20161 8.39828 5.64516C8.39828 6.30091 7.9933 6.85484 7.51428 6.85484ZM12.3243 6.04839L12.3763 6.14365V6.45161H10.6083V6.14365L10.6602 6.04839H12.3243ZM11.1022 5.24194L11.4923 4.53075L11.8823 5.24194H11.1022ZM12.3763 7.25806V13.6593C12.3764 13.6761 12.3777 13.693 12.3801 13.7097H10.6044C10.6068 13.693 10.6081 13.6761 10.6083 13.6593V7.25806H12.3763ZM16.3542 5.64516H17.6802V6.45161H17.2382C17.121 6.45161 17.0086 6.4941 16.9257 6.56971C16.8428 6.64533 16.7962 6.7479 16.7962 6.85484C16.7962 6.96178 16.8428 7.06434 16.9257 7.13996C17.0086 7.21558 17.121 7.25806 17.2382 7.25806H17.6802V8.06452H16.3542C16.237 8.06452 16.1246 8.107 16.0417 8.18262C15.9588 8.25824 15.9122 8.3608 15.9122 8.46774C15.9122 8.57468 15.9588 8.67725 16.0417 8.75287C16.1246 8.82849 16.237 8.87097 16.3542 8.87097H17.6802V9.67742H17.2382C17.121 9.67742 17.0086 9.7199 16.9257 9.79552C16.8428 9.87114 16.7962 9.9737 16.7962 10.0806C16.7962 10.1876 16.8428 10.2901 16.9257 10.3658C17.0086 10.4414 17.121 10.4839 17.2382 10.4839H17.6802V11.2903H16.3542C16.237 11.2903 16.1246 11.3328 16.0417 11.4084C15.9588 11.484 15.9122 11.5866 15.9122 11.6935C15.9122 11.8005 15.9588 11.9031 16.0417 11.9787C16.1246 12.0543 16.237 12.0968 16.3542 12.0968H17.6802V13.7097H14.5862V4.03226H17.6802V4.83871H16.3542C16.237 4.83871 16.1246 4.88119 16.0417 4.95681C15.9588 5.03243 15.9122 5.13499 15.9122 5.24194C15.9122 5.34888 15.9588 5.45144 16.0417 5.52706C16.1246 5.60268 16.237 5.64516 16.3542 5.64516ZM21.6582 10.4839V13.6593C21.6584 13.6761 21.6597 13.693 21.6621 13.7097H19.8863C19.8888 13.693 19.89 13.6761 19.8902 13.6593V10.4839H21.6582ZM19.8902 9.67742V9.36946L20.7742 7.75655L21.6582 9.36946V9.67742H19.8902ZM26.9622 13.7097H22.5383C22.5407 13.693 22.542 13.6761 22.5422 13.6593V9.27419C22.5421 9.21159 22.5263 9.14984 22.4958 9.09375L21.1698 6.6744C21.133 6.60743 21.0765 6.55113 21.0067 6.51178C20.9368 6.47243 20.8563 6.4516 20.7742 6.4516C20.6921 6.4516 20.6116 6.47243 20.5418 6.51178C20.4719 6.55113 20.4154 6.60743 20.3786 6.6744L19.0526 9.09375C19.0222 9.14984 19.0063 9.21159 19.0062 9.27419V13.6593C19.0064 13.6761 19.0077 13.693 19.0101 13.7097H18.5642V3.62903C18.5642 3.52209 18.5177 3.41953 18.4348 3.34391C18.3519 3.26829 18.2394 3.22581 18.1222 3.22581H14.1442C14.027 3.22581 13.9146 3.26829 13.8317 3.34391C13.7488 3.41953 13.7022 3.52209 13.7022 3.62903V13.7097H13.2564C13.2588 13.693 13.2601 13.6761 13.2603 13.6593V6.04839C13.2602 5.98578 13.2443 5.92404 13.2138 5.86794L11.8878 3.44859C11.8511 3.38163 11.7946 3.32532 11.7247 3.28598C11.6548 3.24663 11.5744 3.22579 11.4923 3.22579C11.4102 3.22579 11.3297 3.24663 11.2598 3.28598C11.1899 3.32532 11.1335 3.38163 11.0967 3.44859L9.77068 5.86794C9.74021 5.92404 9.72433 5.98578 9.72427 6.04839V13.6593C9.72444 13.6761 9.72573 13.693 9.72814 13.7097H8.65629L8.83972 9.69405C8.84028 9.68498 8.83972 9.67591 8.83972 9.66633V9.65423C8.8387 9.64004 8.83685 9.62591 8.8342 9.6119V9.61089L8.42535 7.37248C8.93862 7.01915 9.28227 6.37702 9.28227 5.64516C9.28227 4.60887 7.96567 3.46119 7.81539 3.33367C7.7335 3.26442 7.62595 3.22594 7.51428 3.22594C7.40261 3.22594 7.29507 3.26442 7.21317 3.33367C7.06289 3.46119 5.74629 4.60887 5.74629 5.64516C5.74629 6.37702 6.08995 7.01915 6.60321 7.37248L6.19437 9.61089V9.6119C6.19171 9.62591 6.18987 9.64004 6.18884 9.65423V9.66633C6.18884 9.67591 6.18829 9.68498 6.18884 9.69405L6.37227 13.7097H1.32632V1.6129C1.32662 1.3991 1.41986 1.19414 1.58557 1.04297C1.75129 0.891787 1.97596 0.806732 2.21031 0.806452H26.0782C26.3125 0.806732 26.5372 0.891787 26.7029 1.04297C26.8686 1.19414 26.9619 1.3991 26.9622 1.6129V13.7097Z" fill="black"/>
<path d="M5.30431 14.9193H2.65232C2.5351 14.9193 2.42268 14.9618 2.33979 15.0374C2.25689 15.113 2.21033 15.2156 2.21033 15.3225C2.21033 15.4295 2.25689 15.532 2.33979 15.6077C2.42268 15.6833 2.5351 15.7258 2.65232 15.7258H5.30431C5.42153 15.7258 5.53396 15.6833 5.61685 15.6077C5.69974 15.532 5.74631 15.4295 5.74631 15.3225C5.74631 15.2156 5.69974 15.113 5.61685 15.0374C5.53396 14.9618 5.42153 14.9193 5.30431 14.9193Z" fill="black"/>
<path d="M7.07229 14.9193H6.63029C6.51307 14.9193 6.40064 14.9618 6.31775 15.0374C6.23486 15.113 6.18829 15.2156 6.18829 15.3225C6.18829 15.4295 6.23486 15.532 6.31775 15.6077C6.40064 15.6833 6.51307 15.7258 6.63029 15.7258H7.07229C7.18951 15.7258 7.30194 15.6833 7.38483 15.6077C7.46772 15.532 7.51429 15.4295 7.51429 15.3225C7.51429 15.2156 7.46772 15.113 7.38483 15.0374C7.30194 14.9618 7.18951 14.9193 7.07229 14.9193Z" fill="black"/>
<path d="M11.4922 7.66125C11.375 7.66125 11.2626 7.70374 11.1797 7.77936C11.0968 7.85498 11.0502 7.95754 11.0502 8.06448V12.5C11.0502 12.6069 11.0968 12.7095 11.1797 12.7851C11.2626 12.8607 11.375 12.9032 11.4922 12.9032C11.6095 12.9032 11.7219 12.8607 11.8048 12.7851C11.8877 12.7095 11.9342 12.6069 11.9342 12.5V8.06448C11.9342 7.95754 11.8877 7.85498 11.8048 7.77936C11.7219 7.70374 11.6095 7.66125 11.4922 7.66125Z" fill="black"/>
<path d="M20.7742 10.8871C20.6569 10.8871 20.5445 10.9296 20.4616 11.0052C20.3787 11.0808 20.3322 11.1834 20.3322 11.2903V12.5C20.3322 12.6069 20.3787 12.7095 20.4616 12.7851C20.5445 12.8607 20.6569 12.9032 20.7742 12.9032C20.8914 12.9032 21.0038 12.8607 21.0867 12.7851C21.1696 12.7095 21.2161 12.6069 21.2161 12.5V11.2903C21.2161 11.1834 21.1696 11.0808 21.0867 11.0052C21.0038 10.9296 20.8914 10.8871 20.7742 10.8871Z" fill="black"/>
<path d="M2.65232 2.41937H6.1883C6.30553 2.41937 6.41795 2.37688 6.50084 2.30126C6.58373 2.22564 6.6303 2.12308 6.6303 2.01614C6.6303 1.9092 6.58373 1.80664 6.50084 1.73102C6.41795 1.6554 6.30553 1.61292 6.1883 1.61292H2.65232C2.5351 1.61292 2.42268 1.6554 2.33979 1.73102C2.25689 1.80664 2.21033 1.9092 2.21033 2.01614C2.21033 2.12308 2.25689 2.22564 2.33979 2.30126C2.42268 2.37688 2.5351 2.41937 2.65232 2.41937Z" fill="black"/>
<path d="M2.65232 3.62908H3.53632C3.65354 3.62908 3.76597 3.5866 3.84886 3.51098C3.93175 3.43536 3.97832 3.3328 3.97832 3.22586C3.97832 3.11892 3.93175 3.01635 3.84886 2.94073C3.76597 2.86511 3.65354 2.82263 3.53632 2.82263H2.65232C2.5351 2.82263 2.42268 2.86511 2.33979 2.94073C2.25689 3.01635 2.21033 3.11892 2.21033 3.22586C2.21033 3.3328 2.25689 3.43536 2.33979 3.51098C2.42268 3.5866 2.5351 3.62908 2.65232 3.62908Z" fill="black"/>
<path d="M23.8681 12.9033H25.6361C25.7534 12.9033 25.8658 12.8608 25.9487 12.7852C26.0316 12.7095 26.0781 12.607 26.0781 12.5C26.0781 12.3931 26.0316 12.2905 25.9487 12.2149C25.8658 12.1393 25.7534 12.0968 25.6361 12.0968H23.8681C23.7509 12.0968 23.6385 12.1393 23.5556 12.2149C23.4727 12.2905 23.4261 12.3931 23.4261 12.5C23.4261 12.607 23.4727 12.7095 23.5556 12.7852C23.6385 12.8608 23.7509 12.9033 23.8681 12.9033Z" fill="black"/>
<path d="M25.1942 11.6935H25.6362C25.7534 11.6935 25.8658 11.6511 25.9487 11.5754C26.0316 11.4998 26.0782 11.3973 26.0782 11.2903C26.0782 11.1834 26.0316 11.0808 25.9487 11.0052C25.8658 10.9296 25.7534 10.8871 25.6362 10.8871H25.1942C25.077 10.8871 24.9645 10.9296 24.8817 11.0052C24.7988 11.0808 24.7522 11.1834 24.7522 11.2903C24.7522 11.3973 24.7988 11.4998 24.8817 11.5754C24.9645 11.6511 25.077 11.6935 25.1942 11.6935Z" fill="black"/>
</svg>
