<svg width="16" height="25" viewBox="0 0 16 25" fill="none" xmlns="http://www.w3.org/2000/svg">
<path d="M13.5763 0H2.44351C1.98945 0.000542615 1.55415 0.165337 1.23308 0.458245C0.912009 0.751153 0.731369 1.14827 0.730774 1.5625V22.6562C0.731369 23.0705 0.912009 23.4676 1.23308 23.7605C1.55415 24.0534 1.98945 24.2182 2.44351 24.2188H13.5763C14.0304 24.2182 14.4657 24.0534 14.7868 23.7605C15.1078 23.4676 15.2885 23.0705 15.2891 22.6562V1.5625C15.2885 1.14827 15.1078 0.751153 14.7868 0.458245C14.4657 0.165337 14.0304 0.000542615 13.5763 0V0ZM10.0138 0.78125L9.77297 1.5625H6.20351L5.98942 0.78125H10.0138ZM14.4327 22.6562C14.4324 22.8634 14.3421 23.0619 14.1815 23.2084C14.021 23.3548 13.8034 23.4372 13.5763 23.4375H2.44351C2.21648 23.4372 1.99883 23.3548 1.8383 23.2084C1.67776 23.0619 1.58744 22.8634 1.58714 22.6562V1.5625C1.58744 1.35538 1.67776 1.15683 1.8383 1.01037C1.99883 0.863918 2.21648 0.781521 2.44351 0.78125H5.10629L5.45366 2.04785C5.47681 2.13236 5.53026 2.20738 5.60552 2.261C5.68077 2.31461 5.77351 2.34374 5.869 2.34375H10.0973C10.1906 2.34375 10.2814 2.31594 10.3558 2.26455C10.4302 2.21317 10.4841 2.14102 10.5095 2.05908L10.9034 0.78125H13.5763C13.8034 0.781521 14.021 0.863918 14.1815 1.01037C14.3421 1.15683 14.4324 1.35538 14.4327 1.5625V22.6562Z" fill="black"/>
<path d="M5.86896 21.875H2.87167C2.7581 21.875 2.64919 21.9162 2.56889 21.9894C2.48859 22.0627 2.44348 22.162 2.44348 22.2656C2.44348 22.3692 2.48859 22.4686 2.56889 22.5418C2.64919 22.6151 2.7581 22.6562 2.87167 22.6562H5.86896C5.98252 22.6562 6.09143 22.6151 6.17174 22.5418C6.25204 22.4686 6.29715 22.3692 6.29715 22.2656C6.29715 22.162 6.25204 22.0627 6.17174 21.9894C6.09143 21.9162 5.98252 21.875 5.86896 21.875Z" fill="black"/>
<path d="M7.58171 21.875H7.15353C7.03997 21.875 6.93105 21.9162 6.85075 21.9894C6.77045 22.0627 6.72534 22.162 6.72534 22.2656C6.72534 22.3692 6.77045 22.4686 6.85075 22.5418C6.93105 22.6151 7.03997 22.6562 7.15353 22.6562H7.58171C7.69527 22.6562 7.80418 22.6151 7.88448 22.5418C7.96479 22.4686 8.0099 22.3692 8.0099 22.2656C8.0099 22.162 7.96479 22.0627 7.88448 21.9894C7.80418 21.9162 7.69527 21.875 7.58171 21.875Z" fill="black"/>
<path d="M9.51479 9.82123C9.46657 9.79484 9.41313 9.77737 9.35751 9.76982C9.30189 9.76227 9.24519 9.76479 9.19064 9.77723C9.13608 9.78967 9.08475 9.81179 9.03957 9.84233C8.99439 9.87287 8.95625 9.91123 8.92732 9.95522L6.3582 13.8615C6.29977 13.9503 6.28242 14.0567 6.30997 14.1572C6.33751 14.2577 6.40769 14.3441 6.50507 14.3974C6.60245 14.4507 6.71905 14.4665 6.82922 14.4414C6.93939 14.4163 7.03411 14.3522 7.09254 14.2634L9.66166 10.3572C9.69059 10.3132 9.70974 10.2644 9.71802 10.2137C9.72629 10.1629 9.72353 10.1112 9.70989 10.0615C9.69626 10.0117 9.67201 9.96486 9.63853 9.92364C9.60505 9.88242 9.56301 9.84762 9.51479 9.82123Z" fill="black"/>
<path d="M10.9133 9.91206C10.8782 9.87201 10.8347 9.83866 10.7855 9.81392C10.7362 9.78918 10.6821 9.77354 10.6262 9.76788C10.5133 9.75646 10.4 9.78643 10.3113 9.85118C10.2227 9.91593 10.1658 10.0102 10.1533 10.1132C10.1408 10.2161 10.1736 10.3194 10.2446 10.4003L11.7433 12.1093L10.2446 13.8183C10.1736 13.8992 10.1408 14.0025 10.1533 14.1055C10.1658 14.2085 10.2227 14.3027 10.3113 14.3675C10.4 14.4322 10.5133 14.4622 10.6262 14.4508C10.7391 14.4394 10.8423 14.3875 10.9133 14.3066L12.6261 12.3535C12.6869 12.2842 12.72 12.1981 12.72 12.1093C12.72 12.0206 12.6869 11.9345 12.6261 11.8652L10.9133 9.91206Z" fill="black"/>
<path d="M5.10642 14.3066C5.17739 14.3875 5.28069 14.4393 5.39358 14.4508C5.50647 14.4622 5.61971 14.4322 5.70839 14.3675C5.79707 14.3027 5.85392 14.2085 5.86644 14.1055C5.87895 14.0025 5.84611 13.8992 5.77513 13.8183L4.27649 12.1093L5.77513 10.4003C5.81028 10.3603 5.83643 10.3143 5.8521 10.265C5.86776 10.2158 5.87263 10.1641 5.86644 10.1131C5.86024 10.0622 5.84309 10.0128 5.81597 9.96782C5.78886 9.92287 5.7523 9.88324 5.70839 9.85118C5.66448 9.81911 5.61408 9.79526 5.56007 9.78097C5.50605 9.76667 5.44948 9.76223 5.39358 9.76788C5.33768 9.77354 5.28355 9.78918 5.23428 9.81392C5.18501 9.83866 5.14156 9.87201 5.10642 9.91206L3.39368 11.8652C3.33287 11.9345 3.29974 12.0206 3.29974 12.1093C3.29974 12.1981 3.33287 12.2842 3.39368 12.3535L5.10642 14.3066Z" fill="black"/>
</svg>
